<?xml version="1.0" encoding="UTF-8" standalone="no"?>
<!DOCTYPE svg PUBLIC "-//W3C//DTD SVG 1.1//EN" "http://www.w3.org/Graphics/SVG/1.1/DTD/svg11.dtd">
<svg id="svg" version="1.1" xmlns="http://www.w3.org/2000/svg" xmlns:xlink="http://www.w3.org/1999/xlink" width="400" height="400" viewBox="0, 0, 400,400">
	<g id="svgg">
		<path id="path0" d="M87.400 180.462 C 76.432 182.476,68.414 186.415,61.687 193.096 C 59.364 195.402,59.200 195.025,59.200 187.367 L 59.200 181.600 43.800 181.600 L 28.400 181.600 28.400 239.200 L 28.400 296.800 44.600 296.800 L 60.800 296.800 60.819 266.700 C 60.841 232.634,61.038 229.525,63.575 223.200 C 65.448 218.530,68.243 214.964,72.000 212.450 C 74.578 210.726,76.265 209.933,79.723 208.821 C 81.651 208.201,92.721 208.161,93.332 208.772 C 93.567 209.007,94.079 209.200,94.468 209.200 C 98.231 209.200,104.650 215.122,106.607 220.400 C 106.974 221.390,107.414 222.560,107.584 223.000 C 108.928 226.475,108.975 227.643,109.188 262.200 L 109.400 296.600 125.691 296.704 L 141.982 296.809 142.129 264.504 C 142.234 241.412,142.412 231.573,142.754 230.000 C 143.018 228.790,143.336 227.213,143.461 226.496 C 143.586 225.779,143.849 225.094,144.044 224.973 C 144.240 224.852,144.400 224.429,144.400 224.033 C 144.400 220.910,150.662 213.390,155.078 211.210 C 160.188 208.686,161.636 208.359,167.770 208.347 C 172.743 208.337,174.908 208.646,176.895 209.649 C 177.277 209.842,177.781 210.000,178.017 210.000 C 180.056 210.000,185.718 215.666,187.410 219.400 C 190.230 225.626,190.102 223.772,190.363 262.000 L 190.600 296.600 206.900 296.704 L 223.200 296.809 223.200 260.182 C 223.200 224.628,223.116 221.656,221.934 215.600 C 217.423 192.486,201.388 179.979,176.300 180.007 C 159.511 180.026,142.852 187.209,135.731 197.500 C 134.794 198.853,134.299 198.631,132.161 195.900 C 125.621 187.546,117.007 182.577,105.700 180.635 C 101.620 179.935,90.827 179.833,87.400 180.462 " stroke="none" fill="#6cc3db" fill-rule="evenodd"></path>
		<path id="path1" d="M254.400 217.200 L 254.400 296.800 269.972 296.800 L 285.545 296.800 285.672 290.432 C 285.826 282.762,285.707 282.922,288.903 286.118 C 293.293 290.508,300.191 294.620,305.600 296.070 C 306.370 296.276,307.630 296.614,308.400 296.820 C 317.314 299.209,335.969 298.507,341.295 295.582 C 341.677 295.372,342.264 295.200,342.600 295.200 C 342.936 295.200,343.523 295.041,343.905 294.847 C 344.287 294.652,345.095 294.292,345.700 294.047 C 363.449 286.839,375.474 271.264,379.245 250.600 C 379.931 246.838,379.940 231.075,379.257 227.600 C 377.780 220.081,376.865 217.142,374.212 211.400 C 366.594 194.910,351.498 183.635,332.971 180.599 C 318.723 178.264,298.881 182.342,293.200 188.774 C 292.068 190.055,287.913 193.193,287.603 193.002 C 287.339 192.839,287.200 183.248,287.200 165.176 L 287.200 137.600 270.800 137.600 L 254.400 137.600 254.400 217.200 M324.000 207.371 C 335.465 210.198,343.179 218.336,345.829 230.400 C 347.065 236.026,346.522 246.496,344.718 251.800 C 336.923 274.730,305.723 278.765,292.139 258.600 C 284.941 247.914,285.377 227.111,292.985 218.257 C 293.462 217.702,294.201 216.776,294.626 216.199 C 295.836 214.559,300.356 211.087,303.000 209.766 C 305.275 208.630,306.793 208.082,310.000 207.240 C 312.182 206.667,321.497 206.754,324.000 207.371 " stroke="none" fill="#040404" fill-rule="evenodd"></path>
		<path id="path2" d="M0.000 200.000 L 0.000 400.000 200.000 400.000 L 400.000 400.000 400.000 200.000 L 400.000 0.000 200.000 0.000 L 0.000 0.000 0.000 200.000 M287.903 164.500 C 287.965 181.248,288.152 192.000,288.380 192.000 C 288.586 192.000,288.990 191.677,289.277 191.283 C 289.565 190.889,290.606 189.944,291.590 189.183 C 292.575 188.422,293.620 187.578,293.913 187.306 C 295.612 185.729,302.637 182.253,305.948 181.351 C 332.803 174.033,360.102 184.504,372.819 207.000 C 373.675 208.514,374.102 209.352,376.000 213.238 C 376.440 214.139,376.800 215.208,376.800 215.614 C 376.800 216.020,376.980 216.464,377.200 216.600 C 377.420 216.736,377.600 217.276,377.600 217.800 C 377.600 218.324,377.760 218.852,377.956 218.973 C 378.151 219.094,378.412 219.779,378.534 220.496 C 378.656 221.213,378.956 222.700,379.201 223.800 C 380.600 230.082,381.054 243.417,380.073 249.400 C 379.820 250.940,379.502 253.010,379.366 254.000 C 379.230 254.990,378.956 255.971,378.759 256.180 C 378.562 256.389,378.400 256.976,378.400 257.485 C 378.400 257.994,378.242 258.723,378.049 259.105 C 377.856 259.487,377.484 260.520,377.223 261.400 C 373.863 272.703,360.451 288.887,352.300 291.471 C 351.915 291.593,351.600 291.852,351.600 292.047 C 351.600 292.241,351.240 292.400,350.800 292.400 C 350.360 292.400,350.000 292.580,350.000 292.800 C 350.000 293.020,349.818 293.200,349.596 293.200 C 349.373 293.200,348.338 293.578,347.296 294.040 C 341.877 296.441,339.750 297.089,332.800 298.459 C 329.354 299.138,315.846 299.138,312.400 298.459 C 305.679 297.134,304.322 296.707,299.400 294.366 C 296.959 293.206,294.262 291.595,292.453 290.217 C 292.152 289.987,290.787 288.765,289.420 287.500 C 286.330 284.643,286.400 284.552,286.400 291.424 C 286.400 296.244,286.303 297.152,285.767 297.357 C 284.478 297.852,254.588 297.628,254.080 297.120 C 253.553 296.593,253.345 137.588,253.871 137.062 C 254.020 136.913,261.715 136.838,270.971 136.896 L 287.800 137.000 287.903 164.500 M106.000 180.053 C 110.346 181.010,111.528 181.324,113.600 182.075 C 121.253 184.850,128.218 189.803,132.661 195.628 C 134.537 198.088,134.026 198.234,138.299 194.013 C 145.925 186.481,153.580 182.684,166.600 179.972 C 169.571 179.353,183.601 179.297,186.049 179.895 C 187.012 180.130,188.790 180.536,190.000 180.798 C 204.230 183.875,215.849 194.079,220.292 207.400 C 223.647 217.459,223.670 217.829,223.526 260.200 L 223.400 297.000 206.800 297.000 L 190.200 297.000 189.960 262.800 C 189.794 239.061,189.579 227.988,189.257 226.600 C 186.393 214.259,179.852 208.800,167.930 208.800 C 154.251 208.800,145.918 216.062,143.146 230.400 C 142.781 232.288,142.582 241.769,142.422 265.000 L 142.200 297.000 125.600 297.000 L 109.000 297.000 108.778 263.000 C 108.525 224.167,108.540 224.337,104.807 217.813 C 96.879 203.955,72.479 206.092,65.022 221.298 C 61.718 228.036,61.843 226.447,61.694 263.697 L 61.561 296.794 60.681 297.008 C 60.196 297.126,52.600 297.172,43.800 297.111 L 27.800 297.000 27.699 239.100 L 27.597 181.200 43.799 181.200 L 60.000 181.200 60.000 187.133 C 60.000 194.224,59.951 194.148,62.765 191.473 C 69.719 184.862,80.950 180.111,91.200 179.443 C 94.584 179.222,103.985 179.610,106.000 180.053 M311.400 207.684 C 307.819 208.541,306.567 208.895,305.905 209.239 C 305.523 209.438,304.953 209.600,304.639 209.600 C 304.324 209.600,304.007 209.735,303.933 209.900 C 303.860 210.065,302.926 210.643,301.858 211.185 C 293.426 215.459,287.633 226.848,287.608 239.200 C 287.594 246.106,290.351 255.942,293.082 258.729 C 293.367 259.019,293.600 259.386,293.600 259.544 C 293.600 259.989,297.218 263.679,299.000 265.051 C 311.256 274.489,330.551 272.085,339.553 260.000 C 340.126 259.230,340.686 258.510,340.798 258.400 C 341.202 258.000,342.478 255.563,343.153 253.900 C 344.133 251.487,344.325 250.939,344.726 249.400 C 346.414 242.934,346.319 234.649,344.479 228.000 C 341.017 215.484,329.656 207.060,316.494 207.251 C 314.572 207.278,312.280 207.473,311.400 207.684 " stroke="none" fill="#fbfbfb" fill-rule="evenodd"></path>
		<path id="path3" d="M253.871 137.062 C 253.345 137.588,253.553 296.593,254.080 297.120 C 254.440 297.480,258.459 297.577,270.180 297.507 L 285.800 297.414 270.000 297.207 L 254.200 297.000 254.099 217.100 L 253.998 137.200 270.799 137.200 L 287.600 137.200 287.600 165.033 C 287.600 180.342,287.753 192.807,287.940 192.733 C 288.127 192.660,289.432 191.535,290.840 190.233 C 292.248 188.931,292.826 188.261,292.125 188.743 C 291.424 189.225,290.344 190.155,289.726 190.809 C 289.108 191.464,288.468 192.000,288.304 192.000 C 288.140 192.000,287.959 179.625,287.903 164.500 L 287.800 137.000 270.971 136.896 C 261.715 136.838,254.020 136.913,253.871 137.062 M318.600 179.179 C 316.569 179.364,317.650 179.448,322.536 179.487 C 326.242 179.516,329.212 179.487,329.136 179.422 C 328.794 179.128,321.113 178.951,318.600 179.179 M91.200 179.443 C 80.950 180.111,69.719 184.862,62.765 191.473 C 59.951 194.148,60.000 194.224,60.000 187.133 L 60.000 181.200 43.799 181.200 L 27.597 181.200 27.699 239.100 L 27.800 297.000 43.800 297.111 C 52.600 297.172,60.196 297.126,60.681 297.008 L 61.561 296.794 61.694 263.697 C 61.843 226.447,61.718 228.036,65.022 221.298 C 72.479 206.092,96.879 203.955,104.807 217.813 C 108.540 224.337,108.525 224.167,108.778 263.000 L 109.000 297.000 125.600 297.000 L 142.200 297.000 142.422 265.000 C 142.656 231.139,142.681 230.683,144.640 224.844 C 151.489 204.429,181.481 202.546,187.972 222.124 C 189.709 227.363,189.713 227.449,189.960 262.800 L 190.200 297.000 206.800 297.000 L 223.400 297.000 223.526 260.200 C 223.670 217.829,223.647 217.459,220.292 207.400 C 215.849 194.079,204.230 183.875,190.000 180.798 C 188.790 180.536,187.012 180.130,186.049 179.895 C 183.601 179.297,169.571 179.353,166.600 179.972 C 153.580 182.684,145.925 186.481,138.299 194.013 C 134.026 198.234,134.537 198.088,132.661 195.628 C 128.218 189.803,121.253 184.850,113.600 182.075 C 111.528 181.324,110.346 181.010,106.000 180.053 C 103.985 179.610,94.584 179.222,91.200 179.443 M311.600 180.000 C 310.808 180.254,310.767 180.320,311.400 180.320 C 311.840 180.320,312.650 180.176,313.200 180.000 C 313.992 179.746,314.033 179.680,313.400 179.680 C 312.960 179.680,312.150 179.824,311.600 180.000 M332.200 180.000 C 332.640 180.189,333.450 180.338,334.000 180.332 L 335.000 180.320 334.000 180.000 C 333.450 179.824,332.640 179.674,332.200 179.668 L 331.400 179.656 332.200 180.000 M105.700 180.635 C 117.007 182.577,125.621 187.546,132.161 195.900 C 134.299 198.631,134.794 198.853,135.731 197.500 C 142.852 187.209,159.511 180.026,176.300 180.007 C 201.388 179.979,217.423 192.486,221.934 215.600 C 223.116 221.656,223.200 224.628,223.200 260.182 L 223.200 296.809 206.900 296.704 L 190.600 296.600 190.363 262.000 C 190.102 223.772,190.230 225.626,187.410 219.400 C 185.718 215.666,180.056 210.000,178.017 210.000 C 177.781 210.000,177.277 209.842,176.895 209.649 C 174.908 208.646,172.743 208.337,167.770 208.347 C 161.636 208.359,160.188 208.686,155.078 211.210 C 150.662 213.390,144.400 220.910,144.400 224.033 C 144.400 224.429,144.240 224.852,144.044 224.973 C 143.849 225.094,143.586 225.779,143.461 226.496 C 143.336 227.213,143.018 228.790,142.754 230.000 C 142.412 231.573,142.234 241.412,142.129 264.504 L 141.982 296.809 125.691 296.704 L 109.400 296.600 109.188 262.200 C 108.975 227.643,108.928 226.475,107.584 223.000 C 107.414 222.560,106.974 221.390,106.607 220.400 C 104.650 215.122,98.231 209.200,94.468 209.200 C 94.079 209.200,93.567 209.007,93.332 208.772 C 92.721 208.161,81.651 208.201,79.723 208.821 C 68.339 212.481,63.286 219.037,61.396 232.600 C 60.961 235.719,60.834 243.230,60.819 266.700 L 60.800 296.800 44.600 296.800 L 28.400 296.800 28.400 239.200 L 28.400 181.600 43.800 181.600 L 59.200 181.600 59.200 187.367 C 59.200 195.025,59.364 195.402,61.687 193.096 C 68.414 186.415,76.432 182.476,87.400 180.462 C 90.827 179.833,101.620 179.935,105.700 180.635 M308.000 180.800 C 307.467 181.145,307.467 181.188,308.000 181.188 C 308.330 181.188,308.870 181.013,309.200 180.800 C 309.733 180.455,309.733 180.412,309.200 180.412 C 308.870 180.412,308.330 180.587,308.000 180.800 M336.600 180.800 C 337.040 180.989,337.670 181.144,338.000 181.144 C 338.378 181.144,338.304 181.017,337.800 180.800 C 337.360 180.611,336.730 180.456,336.400 180.456 C 336.022 180.456,336.096 180.583,336.600 180.800 M339.800 181.600 C 340.240 181.789,340.870 181.944,341.200 181.944 C 341.578 181.944,341.504 181.817,341.000 181.600 C 340.560 181.411,339.930 181.256,339.600 181.256 C 339.222 181.256,339.296 181.383,339.800 181.600 M344.800 183.274 C 345.350 183.536,346.610 184.107,347.600 184.542 C 348.590 184.977,349.535 185.403,349.700 185.490 C 349.865 185.576,350.000 185.552,350.000 185.435 C 350.000 185.168,346.133 183.396,344.800 183.053 L 343.800 182.796 344.800 183.274 M296.308 185.702 C 294.828 186.608,293.677 187.411,293.751 187.485 C 293.862 187.595,299.010 184.642,299.567 184.148 C 300.296 183.501,298.516 184.350,296.308 185.702 M351.372 186.311 C 352.016 186.690,353.951 187.927,355.672 189.059 C 357.392 190.191,358.798 191.001,358.795 190.859 C 358.787 190.451,351.111 185.590,350.507 185.611 C 350.338 185.616,350.727 185.931,351.372 186.311 M361.200 192.884 C 361.200 193.027,362.265 194.159,363.567 195.401 C 364.869 196.643,366.973 199.041,368.242 200.730 C 370.882 204.241,371.672 205.131,370.612 203.400 C 368.836 200.498,361.200 191.966,361.200 192.884 M310.600 207.600 L 309.800 207.944 310.600 207.944 C 311.040 207.944,311.760 207.789,312.200 207.600 L 313.000 207.256 312.200 207.256 C 311.760 207.256,311.040 207.411,310.600 207.600 M321.400 207.600 C 321.840 207.789,322.560 207.944,323.000 207.944 L 323.800 207.944 323.000 207.600 C 322.560 207.411,321.840 207.256,321.400 207.256 L 320.600 207.256 321.400 207.600 M296.798 214.657 C 295.249 216.119,294.037 217.370,294.105 217.438 C 294.173 217.507,295.549 216.311,297.163 214.781 C 298.777 213.252,299.989 212.000,299.856 212.000 C 299.724 212.000,298.347 213.196,296.798 214.657 M336.239 214.624 C 337.801 216.151,339.570 218.030,340.172 218.800 C 340.773 219.570,341.068 219.803,340.828 219.318 C 340.228 218.106,336.172 213.772,334.648 212.713 C 333.961 212.237,334.678 213.097,336.239 214.624 M292.893 219.100 C 291.857 220.596,291.521 221.200,291.723 221.200 C 291.817 221.200,292.370 220.480,292.953 219.600 C 294.136 217.812,294.084 217.379,292.893 219.100 M377.628 219.076 C 377.718 220.115,378.344 220.996,378.372 220.124 C 378.387 219.642,378.220 219.136,378.000 219.000 C 377.780 218.864,377.613 218.898,377.628 219.076 M378.644 222.600 C 378.973 224.071,379.202 224.390,379.194 223.367 C 379.191 222.945,379.005 222.330,378.782 222.000 C 378.485 221.562,378.448 221.724,378.644 222.600 M379.450 226.800 C 379.775 229.041,380.002 229.360,379.994 227.567 C 379.991 226.815,379.808 225.930,379.588 225.600 C 379.309 225.181,379.267 225.542,379.450 226.800 M288.600 228.400 C 288.450 228.873,288.417 229.350,288.527 229.460 C 288.637 229.570,288.850 229.273,289.000 228.800 C 289.150 228.327,289.183 227.850,289.073 227.740 C 288.963 227.630,288.750 227.927,288.600 228.400 M344.412 228.000 C 344.412 228.330,344.587 228.870,344.800 229.200 C 345.145 229.733,345.188 229.733,345.188 229.200 C 345.188 228.870,345.013 228.330,344.800 228.000 C 344.455 227.467,344.412 227.467,344.412 228.000 M380.200 239.000 C 380.200 243.714,380.322 247.262,380.472 246.885 C 380.621 246.508,380.744 242.960,380.744 239.000 C 380.744 235.040,380.621 231.492,380.472 231.115 C 380.322 230.738,380.200 234.286,380.200 239.000 M287.876 231.610 C 287.730 232.155,287.627 233.050,287.646 233.600 C 287.671 234.318,287.784 234.157,288.049 233.027 C 288.455 231.295,288.300 230.025,287.876 231.610 M345.256 231.600 C 345.256 232.150,345.411 232.960,345.600 233.400 C 345.913 234.129,345.944 234.112,345.944 233.200 C 345.944 232.650,345.789 231.840,345.600 231.400 C 345.287 230.671,345.256 230.688,345.256 231.600 M287.687 244.800 C 287.683 245.350,287.824 246.250,288.000 246.800 C 288.431 248.144,288.431 246.692,288.000 245.000 C 287.726 243.922,287.694 243.902,287.687 244.800 M345.400 245.600 C 345.246 246.510,345.211 247.344,345.321 247.454 C 345.431 247.564,345.646 246.910,345.800 246.000 C 345.954 245.090,345.989 244.256,345.879 244.146 C 345.769 244.036,345.554 244.690,345.400 245.600 M288.456 248.800 C 288.456 249.130,288.611 249.760,288.800 250.200 C 289.017 250.704,289.144 250.778,289.144 250.400 C 289.144 250.070,288.989 249.440,288.800 249.000 C 288.583 248.496,288.456 248.422,288.456 248.800 M379.664 250.267 C 379.629 250.964,379.496 251.864,379.370 252.267 C 379.153 252.959,379.165 252.960,379.594 252.291 C 379.845 251.902,379.977 251.002,379.889 250.291 L 379.728 249.000 379.664 250.267 M289.212 251.600 C 289.212 251.930,289.387 252.470,289.600 252.800 C 289.945 253.333,289.988 253.333,289.988 252.800 C 289.988 252.470,289.813 251.930,289.600 251.600 C 289.255 251.067,289.212 251.067,289.212 251.600 M378.854 254.467 C 378.825 254.834,378.684 255.464,378.541 255.867 C 378.341 256.433,378.395 256.496,378.775 256.146 C 379.046 255.897,379.187 255.267,379.088 254.746 C 378.990 254.226,378.884 254.100,378.854 254.467 M293.191 259.588 C 294.413 261.304,294.952 261.495,293.895 259.838 C 293.403 259.066,292.853 258.426,292.673 258.417 C 292.493 258.408,292.726 258.935,293.191 259.588 M339.233 260.358 C 338.481 261.371,338.175 261.946,338.552 261.636 C 339.371 260.961,340.947 258.803,340.744 258.635 C 340.665 258.570,339.985 259.345,339.233 260.358 M297.744 264.309 C 298.060 264.821,300.400 266.553,300.400 266.275 C 300.400 266.176,299.739 265.591,298.932 264.975 C 298.124 264.359,297.589 264.059,297.744 264.309 M334.400 265.249 C 333.006 266.471,333.005 266.472,334.288 265.619 C 334.996 265.148,335.682 264.591,335.812 264.381 C 336.197 263.757,335.877 263.954,334.400 265.249 M300.986 266.777 C 301.237 267.184,305.602 269.332,305.790 269.142 C 305.868 269.064,304.773 268.427,303.359 267.727 C 301.944 267.028,300.876 266.600,300.986 266.777 M330.000 267.827 C 328.570 268.572,327.562 269.187,327.760 269.191 C 328.293 269.204,332.380 267.155,332.631 266.749 C 332.911 266.297,333.016 266.254,330.000 267.827 M321.800 270.410 C 321.266 270.647,321.598 270.686,322.800 270.527 C 323.790 270.396,324.675 270.224,324.767 270.144 C 325.114 269.843,322.564 270.072,321.800 270.410 M315.700 271.087 C 316.305 271.178,317.295 271.178,317.900 271.087 C 318.505 270.995,318.010 270.920,316.800 270.920 C 315.590 270.920,315.095 270.995,315.700 271.087 M370.269 274.700 C 369.339 276.125,369.162 276.544,369.805 275.800 C 370.774 274.678,372.175 272.400,371.895 272.400 C 371.826 272.400,371.094 273.435,370.269 274.700 M367.096 278.900 C 365.791 280.486,362.170 284.110,359.400 286.603 C 358.502 287.411,358.624 287.365,359.884 286.420 C 361.826 284.965,365.939 280.890,367.677 278.700 C 369.318 276.632,368.824 276.803,367.096 278.900 M286.267 284.666 C 286.120 284.813,286.039 287.738,286.088 291.167 L 286.175 297.400 286.292 291.800 C 286.445 284.458,286.328 284.620,289.374 287.545 C 290.780 288.895,292.066 290.000,292.232 290.000 C 292.398 290.000,292.458 289.948,292.367 289.885 C 292.275 289.821,290.925 288.561,289.367 287.084 C 287.809 285.607,286.414 284.519,286.267 284.666 M356.481 288.572 C 354.848 289.727,354.566 290.003,355.033 289.989 C 355.235 289.983,356.030 289.448,356.800 288.800 C 358.473 287.391,358.313 287.276,356.481 288.572 M295.600 292.367 C 296.563 293.152,297.200 293.408,297.200 293.010 C 297.200 292.906,296.615 292.535,295.900 292.186 L 294.600 291.552 295.600 292.367 M305.200 296.800 C 305.530 297.013,306.160 297.178,306.600 297.166 L 307.400 297.144 306.600 296.800 C 305.404 296.286,304.405 296.286,305.200 296.800 M338.800 296.800 C 337.976 297.064,337.941 297.126,338.600 297.154 C 339.040 297.173,339.670 297.013,340.000 296.800 C 340.701 296.347,340.214 296.347,338.800 296.800 M308.200 297.581 C 308.968 297.929,311.110 298.156,310.767 297.853 C 310.675 297.772,309.880 297.596,309.000 297.462 C 307.885 297.293,307.642 297.329,308.200 297.581 M335.400 297.600 C 334.311 297.877,334.293 297.907,335.200 297.925 C 335.750 297.935,336.560 297.789,337.000 297.600 C 337.986 297.176,337.066 297.176,335.400 297.600 M312.400 298.398 C 313.388 298.716,317.089 298.935,316.767 298.656 C 316.675 298.577,315.430 298.414,314.000 298.294 C 312.440 298.163,311.800 298.205,312.400 298.398 M330.200 298.400 L 328.200 298.674 330.000 298.697 C 330.990 298.710,332.250 298.576,332.800 298.400 C 334.044 298.001,333.106 298.001,330.200 298.400 M320.713 299.095 C 321.876 299.176,323.676 299.176,324.713 299.093 C 325.751 299.011,324.800 298.945,322.600 298.946 C 320.400 298.947,319.551 299.014,320.713 299.095 " stroke="none" fill="#a2c9d5" fill-rule="evenodd"></path>
		<path id="path4" d="M254.099 217.100 L 254.200 297.000 270.100 297.105 L 286.000 297.209 286.000 291.028 C 286.000 283.928,286.061 283.808,288.434 286.260 C 294.570 292.602,305.113 297.534,313.902 298.175 L 316.600 298.372 314.400 298.001 C 311.036 297.433,307.908 296.788,306.800 296.432 C 306.250 296.256,305.080 295.884,304.200 295.606 C 299.243 294.040,292.876 290.091,288.903 286.118 C 285.707 282.922,285.826 282.762,285.672 290.432 L 285.545 296.800 269.972 296.800 L 254.400 296.800 254.400 217.200 L 254.400 137.600 270.800 137.600 L 287.200 137.600 287.200 165.176 C 287.200 183.248,287.339 192.839,287.603 193.002 C 287.913 193.193,292.068 190.055,293.200 188.774 C 294.520 187.280,300.916 183.909,305.348 182.372 C 307.137 181.751,308.203 181.234,307.719 181.222 C 307.234 181.210,306.334 181.402,305.719 181.650 C 305.103 181.897,304.240 182.233,303.800 182.397 C 299.342 184.052,293.997 187.331,290.547 190.527 C 289.197 191.777,287.982 192.800,287.847 192.800 C 287.711 192.800,287.600 180.290,287.600 165.000 L 287.600 137.200 270.799 137.200 L 253.998 137.200 254.099 217.100 M317.600 179.676 C 312.890 179.962,309.397 180.470,308.929 180.937 C 308.543 181.324,309.185 181.266,312.665 180.600 C 332.913 176.725,356.051 185.323,368.105 201.200 C 371.902 206.201,375.870 213.957,377.211 219.000 C 377.387 219.660,377.796 221.190,378.119 222.400 C 378.443 223.610,378.842 225.500,379.006 226.600 C 379.171 227.700,379.387 228.373,379.488 228.095 C 379.763 227.331,378.524 221.652,377.193 217.577 C 371.285 199.501,356.201 185.474,338.140 181.262 C 330.454 179.470,326.302 179.149,317.600 179.676 M310.000 207.240 C 306.793 208.082,305.275 208.630,303.000 209.766 C 300.356 211.087,295.836 214.559,294.626 216.199 C 294.201 216.776,293.464 217.699,292.990 218.251 C 290.899 220.685,288.200 227.009,287.827 230.352 C 287.594 232.434,287.480 232.727,289.286 226.617 C 292.806 214.707,303.443 207.200,316.800 207.200 C 331.703 207.200,341.844 215.564,345.541 230.906 C 346.720 235.802,345.854 248.437,344.053 252.600 C 342.953 255.143,342.472 256.047,340.965 258.400 C 338.393 262.418,333.351 266.999,330.243 268.141 C 329.826 268.294,329.596 268.530,329.732 268.665 C 330.515 269.448,338.579 262.925,340.710 259.784 C 349.071 247.459,348.498 227.411,339.482 216.891 C 335.249 211.951,330.345 208.935,324.000 207.371 C 321.497 206.754,312.182 206.667,310.000 207.240 M379.789 239.000 C 379.789 244.720,379.911 248.500,380.059 247.400 C 380.208 246.300,380.330 242.520,380.330 239.000 C 380.330 235.480,380.208 231.700,380.059 230.600 C 379.911 229.500,379.789 233.280,379.789 239.000 M287.058 235.890 C 286.035 246.943,289.352 256.797,296.385 263.600 C 299.071 266.198,303.403 269.130,303.868 268.665 C 304.004 268.530,303.774 268.294,303.357 268.141 C 294.111 264.744,288.078 253.795,287.632 239.600 C 287.401 232.230,287.399 232.215,287.058 235.890 M378.988 251.338 C 378.839 252.335,378.799 253.386,378.900 253.675 C 379.000 253.964,379.218 253.243,379.382 252.074 C 379.547 250.905,379.587 249.854,379.471 249.738 C 379.355 249.622,379.138 250.342,378.988 251.338 M378.183 255.453 C 375.467 267.613,367.947 279.410,358.127 286.915 C 355.658 288.802,349.045 292.800,348.392 292.800 C 348.202 292.800,347.937 292.978,347.803 293.195 C 347.476 293.724,348.498 293.322,351.200 291.857 C 362.730 285.608,371.409 275.676,376.201 263.248 C 377.668 259.442,378.958 254.825,378.642 254.509 C 378.530 254.397,378.324 254.822,378.183 255.453 M304.507 269.024 C 304.916 269.454,307.642 270.394,308.400 270.366 C 308.730 270.354,308.370 270.112,307.600 269.829 C 305.230 268.958,304.186 268.686,304.507 269.024 M326.600 269.600 C 325.500 270.006,324.870 270.349,325.200 270.363 C 325.904 270.392,328.662 269.471,329.059 269.074 C 329.487 268.646,328.770 268.799,326.600 269.600 M309.800 270.789 C 310.553 271.123,315.125 271.367,314.767 271.055 C 314.675 270.975,313.340 270.802,311.800 270.672 C 310.034 270.522,309.295 270.565,309.800 270.789 M320.600 270.800 L 318.600 271.074 320.800 271.109 C 322.010 271.128,323.360 270.989,323.800 270.800 C 324.796 270.372,323.721 270.372,320.600 270.800 M315.905 271.483 C 316.402 271.579,317.122 271.575,317.505 271.475 C 317.887 271.375,317.480 271.296,316.600 271.301 C 315.720 271.305,315.407 271.387,315.905 271.483 M345.600 293.961 C 345.270 294.134,344.597 294.484,344.105 294.738 C 343.613 294.992,342.859 295.200,342.429 295.200 C 341.999 295.200,341.520 295.406,341.364 295.658 C 341.165 295.981,341.394 296.038,342.139 295.851 C 343.692 295.461,347.502 293.667,346.800 293.656 C 346.470 293.651,345.930 293.788,345.600 293.961 M336.707 296.803 C 335.225 297.189,332.795 297.655,331.307 297.838 C 329.499 298.061,329.010 298.216,329.836 298.306 C 331.093 298.443,338.369 297.105,340.068 296.424 C 341.642 295.793,339.773 296.004,336.707 296.803 M319.718 298.698 C 321.433 298.773,324.133 298.772,325.718 298.697 C 327.303 298.621,325.900 298.559,322.600 298.560 C 319.300 298.561,318.003 298.622,319.718 298.698 " stroke="none" fill="#7c7c7c" fill-rule="evenodd"></path>
	</g>
</svg>