<svg id="visual" viewBox="0 0 900 600" width="900" height="600" xmlns="http://www.w3.org/2000/svg" xmlns:xlink="http://www.w3.org/1999/xlink" version="1.1"><path d="M0 91L16.7 89C33.3 87 66.7 83 100 79C133.3 75 166.7 71 200 66C233.3 61 266.7 55 300 52C333.3 49 366.7 49 400 58C433.3 67 466.7 85 500 90C533.3 95 566.7 87 600 76C633.3 65 666.7 51 700 55C733.3 59 766.7 81 800 91C833.3 101 866.7 99 883.3 98L900 97L900 0L883.3 0C866.7 0 833.3 0 800 0C766.7 0 733.3 0 700 0C666.7 0 633.3 0 600 0C566.7 0 533.3 0 500 0C466.7 0 433.3 0 400 0C366.7 0 333.3 0 300 0C266.7 0 233.3 0 200 0C166.7 0 133.3 0 100 0C66.7 0 33.3 0 16.7 0L0 0Z" fill="#8d63b5"></path><path d="M0 223L16.7 209C33.3 195 66.7 167 100 154C133.3 141 166.7 143 200 148C233.3 153 266.7 161 300 155C333.3 149 366.7 129 400 139C433.3 149 466.7 189 500 193C533.3 197 566.7 165 600 148C633.3 131 666.7 129 700 144C733.3 159 766.7 191 800 207C833.3 223 866.7 223 883.3 223L900 223L900 95L883.3 96C866.7 97 833.3 99 800 89C766.7 79 733.3 57 700 53C666.7 49 633.3 63 600 74C566.7 85 533.3 93 500 88C466.7 83 433.3 65 400 56C366.7 47 333.3 47 300 50C266.7 53 233.3 59 200 64C166.7 69 133.3 73 100 77C66.7 81 33.3 85 16.7 87L0 89Z" fill="#7a4ba7"></path><path d="M0 289L16.7 306C33.3 323 66.7 357 100 374C133.3 391 166.7 391 200 397C233.3 403 266.7 415 300 391C333.3 367 366.7 307 400 303C433.3 299 466.7 351 500 347C533.3 343 566.7 283 600 263C633.3 243 666.7 263 700 280C733.3 297 766.7 311 800 327C833.3 343 866.7 361 883.3 370L900 379L900 221L883.3 221C866.7 221 833.3 221 800 205C766.7 189 733.3 157 700 142C666.7 127 633.3 129 600 146C566.7 163 533.3 195 500 191C466.7 187 433.3 147 400 137C366.7 127 333.3 147 300 153C266.7 159 233.3 151 200 146C166.7 141 133.3 139 100 152C66.7 165 33.3 193 16.7 207L0 221Z" fill="#663399"></path><path d="M0 481L16.7 482C33.3 483 66.7 485 100 490C133.3 495 166.7 503 200 511C233.3 519 266.7 527 300 535C333.3 543 366.7 551 400 552C433.3 553 466.7 547 500 535C533.3 523 566.7 505 600 507C633.3 509 666.7 531 700 531C733.3 531 766.7 509 800 509C833.3 509 866.7 531 883.3 542L900 553L900 377L883.3 368C866.7 359 833.3 341 800 325C766.7 309 733.3 295 700 278C666.7 261 633.3 241 600 261C566.7 281 533.3 341 500 345C466.7 349 433.3 297 400 301C366.7 305 333.3 365 300 389C266.7 413 233.3 401 200 395C166.7 389 133.3 389 100 372C66.7 355 33.3 321 16.7 304L0 287Z" fill="#572d84"></path><path d="M0 601L16.7 601C33.3 601 66.7 601 100 601C133.3 601 166.7 601 200 601C233.3 601 266.7 601 300 601C333.3 601 366.7 601 400 601C433.3 601 466.7 601 500 601C533.3 601 566.7 601 600 601C633.3 601 666.7 601 700 601C733.3 601 766.7 601 800 601C833.3 601 866.7 601 883.3 601L900 601L900 551L883.3 540C866.7 529 833.3 507 800 507C766.7 507 733.3 529 700 529C666.7 529 633.3 507 600 505C566.7 503 533.3 521 500 533C466.7 545 433.3 551 400 550C366.7 549 333.3 541 300 533C266.7 525 233.3 517 200 509C166.7 501 133.3 493 100 488C66.7 483 33.3 481 16.7 480L0 479Z" fill="#492770"></path></svg>